<?xml version="1.0" standalone="no"?>
<!DOCTYPE svg PUBLIC "-//W3C//DTD SVG 20010904//EN"
 "http://www.w3.org/TR/2001/REC-SVG-20010904/DTD/svg10.dtd">
<svg version="1.0" xmlns="http://www.w3.org/2000/svg"
 width="555.000000pt" height="555.000000pt" viewBox="0 0 555.000000 555.000000"
 preserveAspectRatio="xMidYMid meet">
<metadata>
Created by potrace 1.14, written by Peter Selinger 2001-2017
</metadata>
<g transform="translate(0.000000,555.000000) scale(0.100000,-0.100000)"
fill="#000000" stroke="none">
<path d="M2589 5546 c-2 -2 -35 -6 -74 -9 -436 -37 -892 -197 -1265 -445 -558
-371 -956 -913 -1143 -1557 -19 -66 -37 -133 -40 -150 -3 -16 -15 -84 -27
-150 -11 -66 -24 -151 -28 -190 -14 -141 -6 -555 13 -650 3 -11 7 -38 10 -60
60 -427 280 -925 570 -1290 80 -101 291 -318 380 -390 33 -27 62 -52 65 -56
14 -17 262 -184 340 -229 117 -67 291 -149 411 -194 88 -32 283 -92 333 -102
12 -2 53 -10 91 -19 92 -19 144 -27 305 -44 78 -9 465 -6 535 3 22 3 58 8 80
11 527 70 1021 293 1450 655 69 58 238 232 312 320 334 402 540 869 618 1400
26 179 27 578 1 743 -3 18 -8 50 -10 72 -3 22 -7 49 -10 60 -2 11 -9 40 -15
65 -5 25 -12 56 -15 70 -2 14 -12 52 -21 85 -9 33 -18 67 -20 75 -9 38 -66
193 -99 273 -319 769 -988 1365 -1791 1597 -121 36 -308 75 -405 85 -36 4 -74
9 -85 12 -23 6 -461 14 -466 9z"/>
</g>
</svg>
