<?xml version="1.0" encoding="UTF-8" standalone="no"?>
<!DOCTYPE svg PUBLIC "-//W3C//DTD SVG 1.1//EN"
 "http://www.w3.org/Graphics/SVG/1.1/DTD/svg11.dtd">
<!-- Generated by graphviz version 2.38.0 (20140413.2041)
 -->
<!-- Title: G Pages: 1 -->
<svg width="327pt" height="959pt"
 viewBox="0.00 0.00 245.00 719.00" xmlns="http://www.w3.org/2000/svg" xmlns:xlink="http://www.w3.org/1999/xlink">
<g id="graph0" class="graph" transform="scale(1.33333 1.33333) rotate(0) translate(4 715)">
<title>G</title>
<polygon fill="white" stroke="none" points="-4,4 -4,-715 241,-715 241,4 -4,4"/>
<!-- 2277360259464 -->
<g id="node1" class="node"><title>2277360259464</title>
<polygon fill="none" stroke="black" points="7.5,-664.5 7.5,-710.5 229.5,-710.5 229.5,-664.5 7.5,-664.5"/>
<text text-anchor="middle" x="46" y="-683.8" font-family="Times New Roman,serif" font-size="14.00">InputLayer</text>
<polyline fill="none" stroke="black" points="84.5,-664.5 84.5,-710.5 "/>
<text text-anchor="middle" x="112.5" y="-695.3" font-family="Times New Roman,serif" font-size="14.00">input:</text>
<polyline fill="none" stroke="black" points="84.5,-687.5 140.5,-687.5 "/>
<text text-anchor="middle" x="112.5" y="-672.3" font-family="Times New Roman,serif" font-size="14.00">output:</text>
<polyline fill="none" stroke="black" points="140.5,-664.5 140.5,-710.5 "/>
<text text-anchor="middle" x="185" y="-695.3" font-family="Times New Roman,serif" font-size="14.00">[(?, 600, 12)]</text>
<polyline fill="none" stroke="black" points="140.5,-687.5 229.5,-687.5 "/>
<text text-anchor="middle" x="185" y="-672.3" font-family="Times New Roman,serif" font-size="14.00">[(?, 600, 12)]</text>
</g>
<!-- 2277356552264 -->
<g id="node2" class="node"><title>2277356552264</title>
<polygon fill="none" stroke="black" points="18.5,-581.5 18.5,-627.5 218.5,-627.5 218.5,-581.5 18.5,-581.5"/>
<text text-anchor="middle" x="50.5" y="-600.8" font-family="Times New Roman,serif" font-size="14.00">Conv1D</text>
<polyline fill="none" stroke="black" points="82.5,-581.5 82.5,-627.5 "/>
<text text-anchor="middle" x="110.5" y="-612.3" font-family="Times New Roman,serif" font-size="14.00">input:</text>
<polyline fill="none" stroke="black" points="82.5,-604.5 138.5,-604.5 "/>
<text text-anchor="middle" x="110.5" y="-589.3" font-family="Times New Roman,serif" font-size="14.00">output:</text>
<polyline fill="none" stroke="black" points="138.5,-581.5 138.5,-627.5 "/>
<text text-anchor="middle" x="178.5" y="-612.3" font-family="Times New Roman,serif" font-size="14.00">(?, 600, 12)</text>
<polyline fill="none" stroke="black" points="138.5,-604.5 218.5,-604.5 "/>
<text text-anchor="middle" x="178.5" y="-589.3" font-family="Times New Roman,serif" font-size="14.00">(?, 600, 20)</text>
</g>
<!-- 2277360259464&#45;&gt;2277356552264 -->
<g id="edge1" class="edge"><title>2277360259464&#45;&gt;2277356552264</title>
<path fill="none" stroke="black" d="M118.5,-664.366C118.5,-656.152 118.5,-646.658 118.5,-637.725"/>
<polygon fill="black" stroke="black" points="122,-637.607 118.5,-627.607 115,-637.607 122,-637.607"/>
</g>
<!-- 2277356555144 -->
<g id="node3" class="node"><title>2277356555144</title>
<polygon fill="none" stroke="black" points="18.5,-498.5 18.5,-544.5 218.5,-544.5 218.5,-498.5 18.5,-498.5"/>
<text text-anchor="middle" x="50.5" y="-517.8" font-family="Times New Roman,serif" font-size="14.00">Conv1D</text>
<polyline fill="none" stroke="black" points="82.5,-498.5 82.5,-544.5 "/>
<text text-anchor="middle" x="110.5" y="-529.3" font-family="Times New Roman,serif" font-size="14.00">input:</text>
<polyline fill="none" stroke="black" points="82.5,-521.5 138.5,-521.5 "/>
<text text-anchor="middle" x="110.5" y="-506.3" font-family="Times New Roman,serif" font-size="14.00">output:</text>
<polyline fill="none" stroke="black" points="138.5,-498.5 138.5,-544.5 "/>
<text text-anchor="middle" x="178.5" y="-529.3" font-family="Times New Roman,serif" font-size="14.00">(?, 600, 20)</text>
<polyline fill="none" stroke="black" points="138.5,-521.5 218.5,-521.5 "/>
<text text-anchor="middle" x="178.5" y="-506.3" font-family="Times New Roman,serif" font-size="14.00">(?, 600, 40)</text>
</g>
<!-- 2277356552264&#45;&gt;2277356555144 -->
<g id="edge2" class="edge"><title>2277356552264&#45;&gt;2277356555144</title>
<path fill="none" stroke="black" d="M118.5,-581.366C118.5,-573.152 118.5,-563.658 118.5,-554.725"/>
<polygon fill="black" stroke="black" points="122,-554.607 118.5,-544.607 115,-554.607 122,-554.607"/>
</g>
<!-- 2277356581704 -->
<g id="node4" class="node"><title>2277356581704</title>
<polygon fill="none" stroke="black" points="18.5,-415.5 18.5,-461.5 218.5,-461.5 218.5,-415.5 18.5,-415.5"/>
<text text-anchor="middle" x="50.5" y="-434.8" font-family="Times New Roman,serif" font-size="14.00">Dropout</text>
<polyline fill="none" stroke="black" points="82.5,-415.5 82.5,-461.5 "/>
<text text-anchor="middle" x="110.5" y="-446.3" font-family="Times New Roman,serif" font-size="14.00">input:</text>
<polyline fill="none" stroke="black" points="82.5,-438.5 138.5,-438.5 "/>
<text text-anchor="middle" x="110.5" y="-423.3" font-family="Times New Roman,serif" font-size="14.00">output:</text>
<polyline fill="none" stroke="black" points="138.5,-415.5 138.5,-461.5 "/>
<text text-anchor="middle" x="178.5" y="-446.3" font-family="Times New Roman,serif" font-size="14.00">(?, 600, 40)</text>
<polyline fill="none" stroke="black" points="138.5,-438.5 218.5,-438.5 "/>
<text text-anchor="middle" x="178.5" y="-423.3" font-family="Times New Roman,serif" font-size="14.00">(?, 600, 40)</text>
</g>
<!-- 2277356555144&#45;&gt;2277356581704 -->
<g id="edge3" class="edge"><title>2277356555144&#45;&gt;2277356581704</title>
<path fill="none" stroke="black" d="M118.5,-498.366C118.5,-490.152 118.5,-480.658 118.5,-471.725"/>
<polygon fill="black" stroke="black" points="122,-471.607 118.5,-461.607 115,-471.607 122,-471.607"/>
</g>
<!-- 2277356584200 -->
<g id="node5" class="node"><title>2277356584200</title>
<polygon fill="none" stroke="black" points="0,-332.5 0,-378.5 237,-378.5 237,-332.5 0,-332.5"/>
<text text-anchor="middle" x="50.5" y="-351.8" font-family="Times New Roman,serif" font-size="14.00">MaxPooling1D</text>
<polyline fill="none" stroke="black" points="101,-332.5 101,-378.5 "/>
<text text-anchor="middle" x="129" y="-363.3" font-family="Times New Roman,serif" font-size="14.00">input:</text>
<polyline fill="none" stroke="black" points="101,-355.5 157,-355.5 "/>
<text text-anchor="middle" x="129" y="-340.3" font-family="Times New Roman,serif" font-size="14.00">output:</text>
<polyline fill="none" stroke="black" points="157,-332.5 157,-378.5 "/>
<text text-anchor="middle" x="197" y="-363.3" font-family="Times New Roman,serif" font-size="14.00">(?, 600, 40)</text>
<polyline fill="none" stroke="black" points="157,-355.5 237,-355.5 "/>
<text text-anchor="middle" x="197" y="-340.3" font-family="Times New Roman,serif" font-size="14.00">(?, 300, 40)</text>
</g>
<!-- 2277356581704&#45;&gt;2277356584200 -->
<g id="edge4" class="edge"><title>2277356581704&#45;&gt;2277356584200</title>
<path fill="none" stroke="black" d="M118.5,-415.366C118.5,-407.152 118.5,-397.658 118.5,-388.725"/>
<polygon fill="black" stroke="black" points="122,-388.607 118.5,-378.607 115,-388.607 122,-388.607"/>
</g>
<!-- 2277356571592 -->
<g id="node6" class="node"><title>2277356571592</title>
<polygon fill="none" stroke="black" points="23.5,-249.5 23.5,-295.5 213.5,-295.5 213.5,-249.5 23.5,-249.5"/>
<text text-anchor="middle" x="50.5" y="-268.8" font-family="Times New Roman,serif" font-size="14.00">LSTM</text>
<polyline fill="none" stroke="black" points="77.5,-249.5 77.5,-295.5 "/>
<text text-anchor="middle" x="105.5" y="-280.3" font-family="Times New Roman,serif" font-size="14.00">input:</text>
<polyline fill="none" stroke="black" points="77.5,-272.5 133.5,-272.5 "/>
<text text-anchor="middle" x="105.5" y="-257.3" font-family="Times New Roman,serif" font-size="14.00">output:</text>
<polyline fill="none" stroke="black" points="133.5,-249.5 133.5,-295.5 "/>
<text text-anchor="middle" x="173.5" y="-280.3" font-family="Times New Roman,serif" font-size="14.00">(?, 300, 40)</text>
<polyline fill="none" stroke="black" points="133.5,-272.5 213.5,-272.5 "/>
<text text-anchor="middle" x="173.5" y="-257.3" font-family="Times New Roman,serif" font-size="14.00">(?, 20)</text>
</g>
<!-- 2277356584200&#45;&gt;2277356571592 -->
<g id="edge5" class="edge"><title>2277356584200&#45;&gt;2277356571592</title>
<path fill="none" stroke="black" d="M118.5,-332.366C118.5,-324.152 118.5,-314.658 118.5,-305.725"/>
<polygon fill="black" stroke="black" points="122,-305.607 118.5,-295.607 115,-305.607 122,-305.607"/>
</g>
<!-- 2277357147208 -->
<g id="node7" class="node"><title>2277357147208</title>
<polygon fill="none" stroke="black" points="32,-166.5 32,-212.5 205,-212.5 205,-166.5 32,-166.5"/>
<text text-anchor="middle" x="64" y="-185.8" font-family="Times New Roman,serif" font-size="14.00">Dropout</text>
<polyline fill="none" stroke="black" points="96,-166.5 96,-212.5 "/>
<text text-anchor="middle" x="124" y="-197.3" font-family="Times New Roman,serif" font-size="14.00">input:</text>
<polyline fill="none" stroke="black" points="96,-189.5 152,-189.5 "/>
<text text-anchor="middle" x="124" y="-174.3" font-family="Times New Roman,serif" font-size="14.00">output:</text>
<polyline fill="none" stroke="black" points="152,-166.5 152,-212.5 "/>
<text text-anchor="middle" x="178.5" y="-197.3" font-family="Times New Roman,serif" font-size="14.00">(?, 20)</text>
<polyline fill="none" stroke="black" points="152,-189.5 205,-189.5 "/>
<text text-anchor="middle" x="178.5" y="-174.3" font-family="Times New Roman,serif" font-size="14.00">(?, 20)</text>
</g>
<!-- 2277356571592&#45;&gt;2277357147208 -->
<g id="edge6" class="edge"><title>2277356571592&#45;&gt;2277357147208</title>
<path fill="none" stroke="black" d="M118.5,-249.366C118.5,-241.152 118.5,-231.658 118.5,-222.725"/>
<polygon fill="black" stroke="black" points="122,-222.607 118.5,-212.607 115,-222.607 122,-222.607"/>
</g>
<!-- 2277357148936 -->
<g id="node8" class="node"><title>2277357148936</title>
<polygon fill="none" stroke="black" points="32,-83.5 32,-129.5 205,-129.5 205,-83.5 32,-83.5"/>
<text text-anchor="middle" x="64" y="-102.8" font-family="Times New Roman,serif" font-size="14.00">Dropout</text>
<polyline fill="none" stroke="black" points="96,-83.5 96,-129.5 "/>
<text text-anchor="middle" x="124" y="-114.3" font-family="Times New Roman,serif" font-size="14.00">input:</text>
<polyline fill="none" stroke="black" points="96,-106.5 152,-106.5 "/>
<text text-anchor="middle" x="124" y="-91.3" font-family="Times New Roman,serif" font-size="14.00">output:</text>
<polyline fill="none" stroke="black" points="152,-83.5 152,-129.5 "/>
<text text-anchor="middle" x="178.5" y="-114.3" font-family="Times New Roman,serif" font-size="14.00">(?, 20)</text>
<polyline fill="none" stroke="black" points="152,-106.5 205,-106.5 "/>
<text text-anchor="middle" x="178.5" y="-91.3" font-family="Times New Roman,serif" font-size="14.00">(?, 20)</text>
</g>
<!-- 2277357147208&#45;&gt;2277357148936 -->
<g id="edge7" class="edge"><title>2277357147208&#45;&gt;2277357148936</title>
<path fill="none" stroke="black" d="M118.5,-166.366C118.5,-158.152 118.5,-148.658 118.5,-139.725"/>
<polygon fill="black" stroke="black" points="122,-139.607 118.5,-129.607 115,-139.607 122,-139.607"/>
</g>
<!-- 2277357143816 -->
<g id="node9" class="node"><title>2277357143816</title>
<polygon fill="none" stroke="black" points="38.5,-0.5 38.5,-46.5 198.5,-46.5 198.5,-0.5 38.5,-0.5"/>
<text text-anchor="middle" x="64" y="-19.8" font-family="Times New Roman,serif" font-size="14.00">Dense</text>
<polyline fill="none" stroke="black" points="89.5,-0.5 89.5,-46.5 "/>
<text text-anchor="middle" x="117.5" y="-31.3" font-family="Times New Roman,serif" font-size="14.00">input:</text>
<polyline fill="none" stroke="black" points="89.5,-23.5 145.5,-23.5 "/>
<text text-anchor="middle" x="117.5" y="-8.3" font-family="Times New Roman,serif" font-size="14.00">output:</text>
<polyline fill="none" stroke="black" points="145.5,-0.5 145.5,-46.5 "/>
<text text-anchor="middle" x="172" y="-31.3" font-family="Times New Roman,serif" font-size="14.00">(?, 20)</text>
<polyline fill="none" stroke="black" points="145.5,-23.5 198.5,-23.5 "/>
<text text-anchor="middle" x="172" y="-8.3" font-family="Times New Roman,serif" font-size="14.00">(?, 2)</text>
</g>
<!-- 2277357148936&#45;&gt;2277357143816 -->
<g id="edge8" class="edge"><title>2277357148936&#45;&gt;2277357143816</title>
<path fill="none" stroke="black" d="M118.5,-83.3664C118.5,-75.1516 118.5,-65.6579 118.5,-56.7252"/>
<polygon fill="black" stroke="black" points="122,-56.6068 118.5,-46.6068 115,-56.6069 122,-56.6068"/>
</g>
</g>
</svg>
